<?xml version="1.0" standalone="no"?>
<!DOCTYPE svg PUBLIC "-//W3C//DTD SVG 20010904//EN"
 "http://www.w3.org/TR/2001/REC-SVG-20010904/DTD/svg10.dtd">
<svg version="1.0" xmlns="http://www.w3.org/2000/svg"
 width="512.000000pt" height="512.000000pt" viewBox="0 0 512.000000 512.000000"
 preserveAspectRatio="xMidYMid meet">

<g transform="translate(0.000000,512.000000) scale(0.100000,-0.100000)"
fill="#000000" stroke="none">
<path d="M2375 4239 c-321 -39 -565 -191 -679 -423 -58 -119 -71 -181 -70
-351 0 -175 14 -229 91 -354 50 -80 173 -211 241 -256 23 -15 42 -31 42 -34 0
-4 -41 -35 -91 -71 -242 -170 -418 -415 -485 -675 -34 -132 -43 -333 -21 -452
69 -363 367 -612 853 -712 306 -63 774 -45 1125 44 99 25 329 102 340 114 7 6
-113 436 -124 447 -3 3 -36 -1 -74 -9 -296 -67 -760 -81 -1052 -31 -240 41
-392 123 -459 249 -25 46 -27 60 -27 165 0 112 1 117 37 193 115 240 404 390
983 511 l150 31 57 265 c32 146 58 270 58 277 0 9 -15 10 -52 7 -136 -14 -346
-48 -472 -75 -85 -19 -152 -28 -170 -25 -58 12 -232 104 -284 151 -74 67 -104
121 -105 193 -1 104 63 191 169 233 50 19 78 23 189 23 137 0 204 -10 323 -51
41 -14 75 -23 77 -21 7 7 225 488 225 497 0 11 -118 61 -215 90 -158 49 -411
71 -580 50z"/>
</g>
</svg>
