<?xml version="1.0" standalone="no"?>
<!DOCTYPE svg PUBLIC "-//W3C//DTD SVG 20010904//EN"
 "http://www.w3.org/TR/2001/REC-SVG-20010904/DTD/svg10.dtd">
<svg version="1.0" xmlns="http://www.w3.org/2000/svg"
 width="512.000000pt" height="512.000000pt" viewBox="0 0 512.000000 512.000000"
 preserveAspectRatio="xMidYMid meet">

<g transform="translate(0.000000,512.000000) scale(0.100000,-0.100000)"
fill="#000000" stroke="none">
<path d="M320 2560 l0 -1710 1065 0 1065 0 0 215 0 215 -850 0 -850 0 0 535 0
535 850 0 850 0 0 210 0 210 -850 0 -850 0 0 535 0 535 850 0 850 0 0 215 0
215 -1065 0 -1065 0 0 -1710z"/>
<path d="M2860 1920 l0 -1070 213 2 212 3 5 650 5 650 27 63 c106 246 372 388
613 327 193 -49 351 -204 400 -390 13 -50 15 -155 15 -682 l0 -623 216 0 215
0 -4 663 c-4 706 -3 698 -55 847 -66 189 -213 376 -385 488 -123 80 -232 116
-409 132 -185 18 -401 -31 -565 -128 l-52 -31 -3 82 -3 82 -222 3 -223 2 0
-1070z"/>
</g>
</svg>
